<?xml version="1.0" standalone="no"?>
<!DOCTYPE svg PUBLIC "-//W3C//DTD SVG 20010904//EN"
 "http://www.w3.org/TR/2001/REC-SVG-20010904/DTD/svg10.dtd">
<svg version="1.0" xmlns="http://www.w3.org/2000/svg"
 width="1024.000000pt" height="1024.000000pt" viewBox="0 0 1024.000000 1024.000000"
 preserveAspectRatio="xMidYMid meet">

<g transform="translate(0.000000,1024.000000) scale(0.100000,-0.100000)"
fill="#000000" stroke="none">
<path d="M1490 5120 l0 -3630 3630 0 3630 0 0 3630 0 3630 -3630 0 -3630 0 0
-3630z m4868 2483 l92 -6 0 -1288 0 -1289 258 -2 257 -3 3 -529 2 -529 -260 5
-260 5 0 -528 0 -529 -535 0 -535 0 0 524 0 523 -92 7 c-50 3 -626 6 -1280 6
l-1188 0 0 525 0 525 250 0 250 0 0 265 0 265 248 0 249 0 6 158 c4 86 7 201
7 255 l0 99 260 -8 260 -7 0 272 0 271 255 0 255 0 0 28 c1 15 0 136 0 270
l-1 242 257 0 257 0 -8 234 c-4 129 -4 240 1 247 5 9 109 10 453 5 245 -3 488
-9 539 -13z m1100 -4149 l31 -6 3 -274 3 -274 -96 0 c-53 0 -171 3 -262 7
l-167 6 0 274 0 273 229 0 c126 0 242 -3 259 -6z"/>
<path d="M4860 5800 l0 -260 -250 0 -250 0 0 -255 0 -255 -247 -2 -248 -3 -3
-267 -2 -268 506 0 507 0 -8 265 -7 265 255 0 256 0 3 93 c2 50 4 283 4 517
l-1 425 -257 3 -258 2 0 -260z"/>
</g>
</svg>
